<svg xmlns="http://www.w3.org/2000/svg" version="1.1" xmlns:xlink="http://www.w3.org/1999/xlink" xmlns:svgjs="http://svgjs.dev/svgjs" width="1000" height="1000"><g clip-path="url(#SvgjsClipPath1121)"><rect width="1000" height="1000" fill="#000000"></rect><g transform="matrix(1.9704433497536946,0,0,1.9704433497536946,100,160.09852216748766)"><svg xmlns="http://www.w3.org/2000/svg" version="1.1" xmlns:xlink="http://www.w3.org/1999/xlink" xmlns:svgjs="http://svgjs.dev/svgjs" width="406" height="345"><svg width="406" height="345" viewBox="0 0 406 345" fill="none" xmlns="http://www.w3.org/2000/svg">
<path d="M309 175L283 130L158 344.5H406L314.5 185L288 230L328.5 299H237L309 175Z" fill="white"></path>
<path fill-rule="evenodd" clip-rule="evenodd" d="M195.5 0L267 119.5L202.5 233.5L176.5 242L190 253L139 345H90.5L134.5 264.5L116 235L53.5 345H0L99 171.5L110 150L195.5 0ZM197 87L216.5 119.5L160.5 218L141.5 184.5L197 87Z" fill="white"></path>
</svg></svg></g></g><defs><clipPath id="SvgjsClipPath1121"><rect width="1000" height="1000" x="0" y="0" rx="300" ry="300"></rect></clipPath></defs></svg>